<svg width="26" height="26" viewBox="0 0 26 26" fill="none" xmlns="http://www.w3.org/2000/svg">
<path d="M11.4834 17.9834L19.1209 10.3459L17.6042 8.82925L11.4834 14.9501L8.39592 11.8626L6.87925 13.3792L11.4834 17.9834ZM13.0001 23.8334C11.5015 23.8334 10.0931 23.5489 8.77508 22.9797C7.45703 22.4106 6.3105 21.6389 5.3355 20.6647C4.3605 19.6897 3.5888 18.5431 3.02041 17.2251C2.45203 15.907 2.16747 14.4987 2.16675 13.0001C2.16675 11.5015 2.4513 10.0931 3.02041 8.77508C3.58953 7.45703 4.36122 6.3105 5.3355 5.3355C6.3105 4.3605 7.45703 3.5888 8.77508 3.02041C10.0931 2.45203 11.5015 2.16747 13.0001 2.16675C14.4987 2.16675 15.907 2.4513 17.2251 3.02041C18.5431 3.58953 19.6897 4.36122 20.6647 5.3355C21.6397 6.3105 22.4117 7.45703 22.9808 8.77508C23.5499 10.0931 23.8341 11.5015 23.8334 13.0001C23.8334 14.4987 23.5489 15.907 22.9797 17.2251C22.4106 18.5431 21.6389 19.6897 20.6647 20.6647C19.6897 21.6397 18.5431 22.4117 17.2251 22.9808C15.907 23.5499 14.4987 23.8341 13.0001 23.8334ZM13.0001 21.6667C15.4195 21.6667 17.4688 20.8272 19.148 19.148C20.8272 17.4688 21.6667 15.4195 21.6667 13.0001C21.6667 10.5806 20.8272 8.53133 19.148 6.85216C17.4688 5.173 15.4195 4.33341 13.0001 4.33341C10.5806 4.33341 8.53133 5.173 6.85216 6.85216C5.173 8.53133 4.33341 10.5806 4.33341 13.0001C4.33341 15.4195 5.173 17.4688 6.85216 19.148C8.53133 20.8272 10.5806 21.6667 13.0001 21.6667Z" fill="black"/>
</svg>
