<svg width="26" height="26" viewBox="0 0 26 26" fill="none" xmlns="http://www.w3.org/2000/svg">
<path d="M21.1631 22.6668L14.3965 15.9002C13.8594 16.3298 13.2418 16.6699 12.5437 16.9205C11.8455 17.1712 11.1026 17.2965 10.315 17.2965C8.36374 17.2965 6.71253 16.6205 5.36135 15.2686C4.01016 13.9167 3.33421 12.2655 3.3335 10.315C3.33278 8.36446 4.00873 6.71325 5.36135 5.36135C6.71397 4.00945 8.36518 3.3335 10.315 3.3335C12.2648 3.3335 13.9163 4.00945 15.2697 5.36135C16.623 6.71325 17.2986 8.36446 17.2965 10.315C17.2965 11.1026 17.1712 11.8455 16.9205 12.5437C16.6699 13.2418 16.3298 13.8594 15.9002 14.3965L22.6668 21.1631L21.1631 22.6668ZM10.315 15.1483C11.6576 15.1483 12.799 14.6786 13.7391 13.7391C14.6793 12.7997 15.149 11.6583 15.1483 10.315C15.1476 8.97167 14.6779 7.83064 13.7391 6.8919C12.8004 5.95316 11.659 5.48308 10.315 5.48164C8.97095 5.48021 7.82993 5.9503 6.8919 6.8919C5.95388 7.83351 5.48379 8.97453 5.48164 10.315C5.4795 11.6554 5.94958 12.7968 6.8919 13.7391C7.83423 14.6814 8.97525 15.1512 10.315 15.1483Z" fill="black"/>
</svg>
