<svg width="17" height="16" viewBox="0 0 17 16" fill="none" xmlns="http://www.w3.org/2000/svg">
<path d="M5.43783 9.33325C5.24894 9.33325 5.09071 9.26925 4.96316 9.14125C4.8356 9.01325 4.7716 8.85503 4.77116 8.66659C4.77071 8.47814 4.83471 8.31992 4.96316 8.19192C5.0916 8.06392 5.24983 7.99992 5.43783 7.99992C5.62583 7.99992 5.78427 8.06392 5.91316 8.19192C6.04205 8.31992 6.10583 8.47814 6.10449 8.66659C6.10316 8.85503 6.03916 9.01348 5.91249 9.14192C5.78583 9.27037 5.6276 9.33414 5.43783 9.33325ZM8.10449 9.33325C7.9156 9.33325 7.75738 9.26925 7.62983 9.14125C7.50227 9.01325 7.43827 8.85503 7.43783 8.66659C7.43738 8.47814 7.50138 8.31992 7.62983 8.19192C7.75827 8.06392 7.91649 7.99992 8.10449 7.99992C8.29249 7.99992 8.45094 8.06392 8.57983 8.19192C8.70871 8.31992 8.77249 8.47814 8.77116 8.66659C8.76982 8.85503 8.70582 9.01348 8.57916 9.14192C8.45249 9.27037 8.29427 9.33414 8.10449 9.33325ZM10.7712 9.33325C10.5823 9.33325 10.424 9.26925 10.2965 9.14125C10.1689 9.01325 10.1049 8.85503 10.1045 8.66659C10.104 8.47814 10.168 8.31992 10.2965 8.19192C10.4249 8.06392 10.5832 7.99992 10.7712 7.99992C10.9592 7.99992 11.1176 8.06392 11.2465 8.19192C11.3754 8.31992 11.4392 8.47814 11.4378 8.66659C11.4365 8.85503 11.3725 9.01348 11.2458 9.14192C11.1192 9.27037 10.9609 9.33414 10.7712 9.33325ZM3.43783 14.6666C3.07116 14.6666 2.75738 14.5361 2.49649 14.2753C2.2356 14.0144 2.10494 13.7004 2.10449 13.3333V3.99992C2.10449 3.63325 2.23516 3.31948 2.49649 3.05859C2.75783 2.7977 3.0716 2.66703 3.43783 2.66659H4.10449V1.99992C4.10449 1.81103 4.16849 1.65281 4.29649 1.52525C4.42449 1.3977 4.58271 1.3337 4.77116 1.33325C4.9596 1.33281 5.11805 1.39681 5.24649 1.52525C5.37494 1.6537 5.43871 1.81192 5.43783 1.99992V2.66659H10.7712V1.99992C10.7712 1.81103 10.8352 1.65281 10.9632 1.52525C11.0912 1.3977 11.2494 1.3337 11.4378 1.33325C11.6263 1.33281 11.7847 1.39681 11.9132 1.52525C12.0416 1.6537 12.1054 1.81192 12.1045 1.99992V2.66659H12.7712C13.1378 2.66659 13.4518 2.79725 13.7132 3.05859C13.9745 3.31992 14.1049 3.6337 14.1045 3.99992V13.3333C14.1045 13.6999 13.974 14.0139 13.7132 14.2753C13.4523 14.5366 13.1383 14.667 12.7712 14.6666H3.43783ZM3.43783 13.3333H12.7712V6.66659H3.43783V13.3333ZM3.43783 5.33325H12.7712V3.99992H3.43783V5.33325Z" fill="black"/>
</svg>
