<svg width="24" height="24" viewBox="0 0 24 24" fill="none" xmlns="http://www.w3.org/2000/svg">
<path d="M16.15 13H5C4.71667 13 4.47934 12.904 4.288 12.712C4.09667 12.52 4.00067 12.2826 4 12C3.99934 11.7173 4.09534 11.48 4.288 11.288C4.48067 11.096 4.718 11 5 11H16.15L13.3 8.14996C13.1 7.94996 13.004 7.71663 13.012 7.44996C13.02 7.1833 13.116 6.94996 13.3 6.74996C13.5 6.54996 13.7377 6.44596 14.013 6.43796C14.2883 6.42996 14.5257 6.52563 14.725 6.72496L19.3 11.3C19.4 11.4 19.471 11.5083 19.513 11.625C19.555 11.7416 19.5757 11.8666 19.575 12C19.5743 12.1333 19.5537 12.2583 19.513 12.375C19.4723 12.4916 19.4013 12.6 19.3 12.7L14.725 17.275C14.525 17.475 14.2877 17.571 14.013 17.563C13.7383 17.555 13.5007 17.4506 13.3 17.25C13.1167 17.05 13.0207 16.8166 13.012 16.55C13.0033 16.2833 13.0993 16.05 13.3 15.85L16.15 13Z" fill="black"/>
</svg>
