<svg width="16" height="16" viewBox="0 0 16 16" fill="none" xmlns="http://www.w3.org/2000/svg">
<path d="M8.00008 7.99996C7.26675 7.99996 6.63897 7.73885 6.11675 7.21663C5.59453 6.6944 5.33341 6.06663 5.33341 5.33329C5.33341 4.59996 5.59453 3.97218 6.11675 3.44996C6.63897 2.92774 7.26675 2.66663 8.00008 2.66663C8.73342 2.66663 9.36119 2.92774 9.88341 3.44996C10.4056 3.97218 10.6667 4.59996 10.6667 5.33329C10.6667 6.06663 10.4056 6.6944 9.88341 7.21663C9.36119 7.73885 8.73342 7.99996 8.00008 7.99996ZM2.66675 12V11.4666C2.66675 11.0888 2.76408 10.7417 2.95875 10.4253C3.15341 10.1088 3.41164 9.86707 3.73341 9.69996C4.4223 9.35552 5.1223 9.09729 5.83341 8.92529C6.54453 8.75329 7.26675 8.66707 8.00008 8.66663C8.73342 8.66618 9.45564 8.7524 10.1667 8.92529C10.8779 9.09818 11.5779 9.3564 12.2667 9.69996C12.589 9.86663 12.8474 10.1084 13.0421 10.4253C13.2367 10.7422 13.3339 11.0893 13.3334 11.4666V12C13.3334 12.3666 13.203 12.6806 12.9421 12.942C12.6812 13.2033 12.3672 13.3337 12.0001 13.3333H4.00008C3.63341 13.3333 3.31964 13.2028 3.05875 12.942C2.79786 12.6811 2.66719 12.3671 2.66675 12ZM4.00008 12H12.0001V11.4666C12.0001 11.3444 11.9696 11.2333 11.9087 11.1333C11.8479 11.0333 11.7672 10.9555 11.6667 10.9C11.0667 10.6 10.4612 10.3751 9.85008 10.2253C9.23897 10.0755 8.6223 10.0004 8.00008 9.99996C7.37786 9.99952 6.76119 10.0746 6.15008 10.2253C5.53897 10.376 4.93341 10.6008 4.33341 10.9C4.23341 10.9555 4.15275 11.0333 4.09141 11.1333C4.03008 11.2333 3.99964 11.3444 4.00008 11.4666V12ZM8.00008 6.66663C8.36675 6.66663 8.68075 6.53618 8.94208 6.27529C9.20341 6.0144 9.33386 5.7004 9.33342 5.33329C9.33297 4.96618 9.20253 4.6524 8.94208 4.39196C8.68164 4.13151 8.36764 4.00085 8.00008 3.99996C7.63253 3.99907 7.31875 4.12974 7.05875 4.39196C6.79875 4.65418 6.66808 4.96796 6.66675 5.33329C6.66541 5.69863 6.79608 6.01263 7.05875 6.27529C7.32141 6.53796 7.63519 6.6684 8.00008 6.66663Z" fill="black" fill-opacity="0.5"/>
</svg>
