<svg width="16" height="16" viewBox="0 0 16 16" fill="none" xmlns="http://www.w3.org/2000/svg">
<path d="M7.99984 8.00008C7.2665 8.00008 6.63873 7.73897 6.1165 7.21675C5.59428 6.69453 5.33317 6.06675 5.33317 5.33341C5.33317 4.60008 5.59428 3.9723 6.1165 3.45008C6.63873 2.92786 7.2665 2.66675 7.99984 2.66675C8.73317 2.66675 9.36095 2.92786 9.88317 3.45008C10.4054 3.9723 10.6665 4.60008 10.6665 5.33341C10.6665 6.06675 10.4054 6.69453 9.88317 7.21675C9.36095 7.73897 8.73317 8.00008 7.99984 8.00008ZM2.6665 12.0001V11.4667C2.6665 11.089 2.76384 10.7419 2.9585 10.4254C3.15317 10.109 3.41139 9.86719 3.73317 9.70008C4.42206 9.35564 5.12206 9.09741 5.83317 8.92541C6.54428 8.75341 7.2665 8.66719 7.99984 8.66675C8.73317 8.6663 9.45539 8.75253 10.1665 8.92541C10.8776 9.0983 11.5776 9.35653 12.2665 9.70008C12.5887 9.86675 12.8472 10.1085 13.0418 10.4254C13.2365 10.7423 13.3336 11.0894 13.3332 11.4667V12.0001C13.3332 12.3667 13.2027 12.6807 12.9418 12.9421C12.6809 13.2034 12.3669 13.3339 11.9998 13.3334H3.99984C3.63317 13.3334 3.31939 13.203 3.0585 12.9421C2.79761 12.6812 2.66695 12.3672 2.6665 12.0001ZM3.99984 12.0001H11.9998V11.4667C11.9998 11.3445 11.9694 11.2334 11.9085 11.1334C11.8476 11.0334 11.7669 10.9556 11.6665 10.9001C11.0665 10.6001 10.4609 10.3752 9.84984 10.2254C9.23873 10.0756 8.62206 10.0005 7.99984 10.0001C7.37761 9.99964 6.76095 10.0747 6.14984 10.2254C5.53873 10.3761 4.93317 10.601 4.33317 10.9001C4.23317 10.9556 4.1525 11.0334 4.09117 11.1334C4.02984 11.2334 3.99939 11.3445 3.99984 11.4667V12.0001ZM7.99984 6.66675C8.3665 6.66675 8.6805 6.5363 8.94184 6.27541C9.20317 6.01453 9.33362 5.70053 9.33317 5.33341C9.33273 4.9663 9.20228 4.65253 8.94184 4.39208C8.68139 4.13164 8.36739 4.00097 7.99984 4.00008C7.63228 3.99919 7.3185 4.12986 7.0585 4.39208C6.7985 4.6543 6.66784 4.96808 6.6665 5.33341C6.66517 5.69875 6.79584 6.01275 7.0585 6.27541C7.32117 6.53808 7.63495 6.66853 7.99984 6.66675Z" fill="black"/>
</svg>
