<svg width="32" height="32" viewBox="0 0 32 32" fill="none" xmlns="http://www.w3.org/2000/svg">
<path d="M20.9183 17.3334H6.4764C6.10941 17.3334 5.80201 17.2054 5.55419 16.9494C5.30636 16.6934 5.18202 16.377 5.18116 16.0001C5.18029 15.6232 5.30464 15.3068 5.55419 15.0508C5.80373 14.7948 6.11114 14.6668 6.4764 14.6668H20.9183L17.2269 10.8668C16.9678 10.6001 16.8435 10.289 16.8538 9.93345C16.8642 9.57789 16.9885 9.26678 17.2269 9.00011C17.4859 8.73345 17.7938 8.59478 18.1504 8.58411C18.507 8.57345 18.8144 8.701 19.0726 8.96678L24.9983 15.0668C25.1278 15.2001 25.2198 15.3446 25.2742 15.5001C25.3286 15.6557 25.3554 15.8223 25.3545 16.0001C25.3536 16.1779 25.3269 16.3446 25.2742 16.5001C25.2215 16.6557 25.1296 16.8001 24.9983 16.9334L19.0726 23.0334C18.8135 23.3001 18.5061 23.4281 18.1504 23.4174C17.7946 23.4068 17.4868 23.2677 17.2269 23.0001C16.9894 22.7334 16.8651 22.4223 16.8538 22.0668C16.8426 21.7112 16.967 21.4001 17.2269 21.1334L20.9183 17.3334Z" fill="white"/>
</svg>
