<svg width="16" height="16" viewBox="0 0 16 16" fill="none" xmlns="http://www.w3.org/2000/svg">
<path d="M5.0835 4.26659L6.95017 1.84992C7.0835 1.67214 7.24195 1.5417 7.4255 1.45859C7.60906 1.37548 7.80061 1.3337 8.00017 1.33326C8.19973 1.33281 8.3915 1.37459 8.5755 1.45859C8.7595 1.54259 8.91773 1.67303 9.05017 1.84992L10.9168 4.26659L13.7502 5.21659C14.0391 5.30548 14.2668 5.46948 14.4335 5.70859C14.6002 5.9477 14.6835 6.21148 14.6835 6.49992C14.6835 6.63326 14.6639 6.76659 14.6248 6.89992C14.5857 7.03326 14.5219 7.16103 14.4335 7.28326L12.6002 9.88326L12.6668 12.6166C12.6779 13.0055 12.5502 13.3333 12.2835 13.5999C12.0168 13.8666 11.7057 13.9999 11.3502 13.9999C11.3279 13.9999 11.2057 13.9833 10.9835 13.9499L8.00017 13.1166L5.01684 13.9499C4.96128 13.9721 4.90017 13.9861 4.8335 13.9919C4.76684 13.9977 4.70573 14.0004 4.65017 13.9999C4.29461 13.9999 3.9835 13.8666 3.71684 13.5999C3.45017 13.3333 3.32239 13.0055 3.3335 12.6166L3.40017 9.86659L1.5835 7.28326C1.49461 7.16103 1.43061 7.03326 1.3915 6.89992C1.35239 6.76659 1.33306 6.63326 1.3335 6.49992C1.3335 6.22214 1.41417 5.96392 1.5755 5.72526C1.73684 5.48659 1.96173 5.31703 2.25017 5.21659L5.0835 4.26659Z" fill="white" fill-opacity="0.9"/>
</svg>
